<svg width="240" height="44" viewBox="0 0 240 44" fill="none" xmlns="http://www.w3.org/2000/svg">
<path d="M0.7 43L19.6 0.999997H27.28L46.24 43H38.08L21.82 5.14H24.94L8.74 43H0.7ZM9.4 33.28L11.5 27.16H34.18L36.28 33.28H9.4Z" fill="#93B1FF"/>
<path d="M71.2014 43.6C67.9214 43.6 64.9014 43.08 62.1414 42.04C59.4214 40.96 57.0414 39.46 55.0014 37.54C52.9614 35.58 51.3814 33.28 50.2614 30.64C49.1414 28 48.5814 25.12 48.5814 22C48.5814 18.88 49.1414 16 50.2614 13.36C51.3814 10.72 52.9614 8.44 55.0014 6.52C57.0814 4.56 59.5014 3.06 62.2614 2.02C65.0214 0.939998 68.0414 0.399998 71.3214 0.399998C74.8814 0.399998 78.0814 0.979997 80.9214 2.14C83.8014 3.3 86.2214 5 88.1814 7.24L83.2614 12.04C81.6214 10.4 79.8414 9.2 77.9214 8.44C76.0414 7.64 73.9614 7.24 71.6814 7.24C69.4814 7.24 67.4414 7.6 65.5614 8.32C63.6814 9.04 62.0614 10.06 60.7014 11.38C59.3414 12.7 58.2814 14.26 57.5214 16.06C56.8014 17.86 56.4414 19.84 56.4414 22C56.4414 24.12 56.8014 26.08 57.5214 27.88C58.2814 29.68 59.3414 31.26 60.7014 32.62C62.0614 33.94 63.6614 34.96 65.5014 35.68C67.3414 36.4 69.3814 36.76 71.6214 36.76C73.7014 36.76 75.7014 36.44 77.6214 35.8C79.5814 35.12 81.4414 34 83.2014 32.44L87.6414 38.26C85.4414 40.02 82.8814 41.36 79.9614 42.28C77.0814 43.16 74.1614 43.6 71.2014 43.6ZM80.2614 37.24V21.52H87.6414V38.26L80.2614 37.24ZM91.9891 43L110.889 0.999997H118.569L137.529 43H129.369L113.109 5.14H116.229L100.029 43H91.9891ZM100.689 33.28L102.789 27.16H125.469L127.569 33.28H100.689ZM142.87 43V0.999997H149.29L167.65 31.66H164.29L182.35 0.999997H188.77L188.83 43H181.45L181.39 12.58H182.95L167.59 38.2H164.11L148.51 12.58H150.31V43H142.87ZM194.235 43L213.135 0.999997H220.815L239.775 43H231.615L215.355 5.14H218.475L202.275 43H194.235ZM202.935 33.28L205.035 27.16H227.715L229.815 33.28H202.935Z" fill="black"/>
</svg>
